<?xml version="1.0" encoding="UTF-8"?>
<svg width="200px" height="40px" viewBox="0 0 200 40" version="1.1" xmlns="http://www.w3.org/2000/svg" xmlns:xlink="http://www.w3.org/1999/xlink">
    <!-- Generator: Sketch 61.2 (89653) - https://sketch.com -->
    <title>add-to-cart</title>
    <desc>Created with Sketch.</desc>
    <g id="Page-1" stroke="none" stroke-width="1" fill="none" fill-rule="evenodd">
        <g id="iPhone-8" transform="translate(-88.000000, -450.000000)">
            <g id="add-to-cart" transform="translate(88.000000, 450.000000)">
                <rect id="Rectangle" fill="#FFFFFF" x="0" y="0" width="200" height="40" rx="4"></rect>
                <g id="Group" transform="translate(53.000000, 10.000000)" fill="#00457C" fill-rule="nonzero">
                    <g id="paypal">
                        <path d="M5.75666667,20 L3.17,20 C2.61666667,20 2.265,19.5591667 2.39,19.0166667 L2.51416667,18.455 L4.24,18.455 C4.795,18.455 5.35333333,18.0108333 5.475,17.47 L6.36166667,13.6433333 C6.48666667,13.1033333 7.04166667,12.66 7.595,12.66 L8.33083333,12.66 C11.4883333,12.66 13.9425,12.0108333 15.6975,10.71 C17.4525,9.40916667 18.3308333,7.71 18.3308333,5.5975 C18.3308333,4.66 18.1683333,3.885 17.8408333,3.27333333 C17.8408333,3.26 17.8275,3.2475 17.8275,3.235 L17.94,3.2975 C18.565,3.685 19.04,4.18416667 19.3658333,4.80916667 C19.7025,5.43416667 19.8641667,6.20916667 19.8641667,7.135 C19.8641667,9.2475 18.99,10.9466667 17.2275,12.2475 C15.4775,13.535 13.015,14.1841667 9.86583333,14.1841667 L9.11583333,14.1841667 C8.56583333,14.1841667 8.00416667,14.6216667 7.87916667,15.1725 L6.99166667,19.01 C6.8675,19.5475 6.31666667,19.985 5.76666667,19.985 L5.75666667,20 Z M3.52583333,17.7541667 L0.938333333,17.7541667 C0.385833333,17.7541667 0.035,17.3133333 0.158333333,16.7708333 L3.8025,0.985 C3.92833333,0.440833333 4.48166667,0 5.03666667,0 L10.4241667,0 C11.5866667,0 12.5983333,0.0816666667 13.4641667,0.240833333 C14.3266667,0.398333333 15.0641667,0.673333333 15.7008333,1.06583333 C16.3141667,1.45333333 16.8025,1.95916667 17.115,2.58083333 C17.4391667,3.20416667 17.6016667,3.98083333 17.6016667,4.91166667 C17.6016667,7.02416667 16.7258333,8.72333333 14.965,10.0108333 C13.215,11.3116667 10.7516667,11.9491667 7.60166667,11.9491667 L6.86583333,11.9491667 C6.31583333,11.9491667 5.75916667,12.3858333 5.63416667,12.9233333 L4.75,16.7475 C4.62583333,17.2858333 4.06916667,17.7241667 3.5125,17.7241667 L3.52583333,17.7541667 L3.52583333,17.7541667 Z M9.73083333,3.28 L8.88583333,3.28 C8.33083333,3.28 7.77583333,3.72083333 7.6525,4.26166667 L6.8775,7.61166667 C6.7525,8.15166667 7.1025,8.59416667 7.6525,8.59416667 L8.29083333,8.59416667 C9.6775,8.59416667 10.7658333,8.30833333 11.5408333,7.74333333 C12.315,7.17166667 12.7033333,6.365 12.7033333,5.31666667 C12.7033333,4.625 12.4525,4.1125 11.9533333,3.78333333 C11.4533333,3.44666667 10.7033333,3.27916667 9.715,3.27916667 L9.73083333,3.28 L9.73083333,3.28 Z" id="Shape"></path>
                    </g>
                    <path d="M38.032,17.248 C38.192,17.248 38.208,17.232 38.208,17.088 C38.208,16.9984 38.1801244,16.5185422 38.1764077,15.5313493 L38.176,14.496 L42.896,14.496 L42.896,15.44 C42.896,15.76 42.816,15.888 42.4,15.888 C42.016,15.888 41.632,15.872 41.184,15.824 C41.328,16.048 41.456,16.304 41.552,16.64 C41.664,17.136 41.664,17.136 42.144,17.136 C43.36,17.12 43.744,17.04 44.032,16.768 C44.32,16.496 44.4,16.128 44.4,15.488 C44.4,15.232 44.384,14.88 44.368,14.512 C44.896,14.512 45.12,14.528 45.184,14.528 C45.344,14.528 45.36,14.512 45.36,14.336 L45.36,13.52 C45.36,13.36 45.344,13.344 45.184,13.344 C45.12,13.344 44.88,13.36 44.352,13.376 L44.352,11.712 C44.352,10.512 44.384,9.904 44.384,9.808 C44.384,9.648 44.368,9.632 44.208,9.632 C44.1022222,9.632 43.6539259,9.66054321 42.4183128,9.66371468 L41.168,9.664 L41.168,8.912 L42.992,8.912 C44.528,8.912 45.04,8.944 45.136,8.944 C45.296,8.944 45.312,8.928 45.312,8.768 L45.312,7.936 C45.312,7.776 45.296,7.76 45.136,7.76 C45.0496,7.76 44.62624,7.78592 43.422688,7.791104 L42.736,7.792 L42.736,6.944 C43.872,6.96 44.288,6.976 44.384,6.976 C44.544,6.976 44.56,6.96 44.56,6.784 L44.56,6.032 C44.56,5.888 44.544,5.872 44.384,5.872 C44.288,5.872 43.872,5.904 42.736,5.904 L42.736,5.056 C44.224,5.056 44.688,5.088 44.784,5.088 C44.944,5.088 44.96,5.072 44.96,4.912 L44.96,4.128 C44.96,3.952 44.944,3.936 44.784,3.936 C44.688,3.936 44.224,3.968 42.736,3.968 L42.736,3.936 C42.736,3.456 42.752,3.264 42.832,3.136 C42.88,3.056 42.912,2.976 42.912,2.896 C42.912,2.832 42.832,2.768 42.672,2.752 C42.24,2.704 41.728,2.672 41.2,2.64 C41.28,2.944 41.296,3.28 41.296,3.872 L41.296,3.968 L39.664,3.968 L39.664,3.936 C39.664,3.456 39.68,3.264 39.76,3.136 C39.824,3.056 39.84,2.976 39.84,2.896 C39.84,2.832 39.76,2.768 39.6,2.752 C39.168,2.704 38.656,2.672 38.128,2.64 C38.224,2.944 38.224,3.28 38.224,3.872 L38.224,3.968 C37.04,3.968 36.592,3.936 36.512,3.936 C36.352,3.936 36.336,3.952 36.336,4.128 L36.336,4.912 C36.336,5.072 36.352,5.088 36.512,5.088 L36.5599688,5.08728125 C36.7155,5.084 37.188,5.07 38.224,5.056 L38.224,5.904 C37.264,5.904 36.896,5.872 36.816,5.872 C36.656,5.872 36.64,5.888 36.64,6.032 L36.64,6.784 C36.64,6.96 36.656,6.976 36.816,6.976 L36.8640806,6.97518459 C37.0046578,6.97173333 37.392,6.95786667 38.224,6.944 L38.224,7.792 C36.848,7.792 36.336,7.76 36.24,7.76 C36.08,7.76 36.064,7.776 36.064,7.936 L36.064,8.768 C36.064,8.928 36.08,8.944 36.24,8.944 L36.2898685,8.94301093 C36.4741496,8.93761773 37.04,8.912 38.4,8.912 L39.776,8.912 L39.776,9.664 L38.864,9.664 C37.456,9.664 36.976,9.632 36.864,9.632 C36.704,9.632 36.688,9.648 36.688,9.808 C36.688,9.904 36.72,10.416 36.72,11.568 L36.72,13.376 C36.288,13.36 36.096,13.344 36.048,13.344 C35.872,13.344 35.856,13.36 35.856,13.52 L35.856,14.336 C35.856,14.512 35.872,14.528 36.048,14.528 C36.096,14.528 36.288,14.512 36.72,14.512 L36.72,15.344 C36.72,16.512 36.688,16.976 36.688,17.088 C36.688,17.232 36.704,17.248 36.864,17.248 L38.032,17.248 Z M32.768,13.2 L34.096,13.2 C35.072,13.2 35.376,13.232 35.488,13.232 C35.632,13.232 35.648,13.216 35.648,13.056 C35.648,12.9656471 35.619654,12.3792388 35.6163192,11.1367034 L35.616,5.536 C35.616,4.128 35.648,3.472 35.648,3.376 C35.648,3.216 35.632,3.2 35.488,3.2 C35.3834667,3.2 35.11168,3.22787556 34.2823822,3.2315923 L32.768,3.232 C31.824,3.232 31.52,3.2 31.408,3.2 C31.248,3.2 31.232,3.216 31.232,3.376 C31.232,3.488 31.264,4.128 31.264,5.536 L31.264,10.896 C31.264,12.304 31.232,12.944 31.232,13.056 C31.232,13.216 31.248,13.232 31.408,13.232 C31.52,13.232 31.824,13.2 32.768,13.2 Z M34.24,6.16 L32.656,6.16 L32.656,4.56 L34.24,4.56 L34.24,6.16 Z M41.296,5.904 L39.664,5.904 L39.664,5.056 L41.296,5.056 L41.296,5.904 Z M41.296,7.792 L39.664,7.792 L39.664,6.944 L41.296,6.944 L41.296,7.792 Z M34.24,8.976 L32.656,8.976 L32.656,7.44 L34.24,7.44 L34.24,8.976 Z M34.24,11.904 L32.656,11.904 L32.656,10.24 L34.24,10.24 L34.24,11.904 Z M42.896,11.568 L41.168,11.568 L41.168,10.752 L42.896,10.752 L42.896,11.568 Z M39.776,11.568 L38.176,11.568 L38.176,10.752 L39.776,10.752 L39.776,11.568 Z M42.896,13.376 L41.168,13.376 L41.168,12.528 L42.896,12.528 L42.896,13.376 Z M39.776,13.376 L38.176,13.376 L38.176,12.528 L39.776,12.528 L39.776,13.376 Z M35.2,16.752 C35.28,16.752 35.36,16.688 35.488,16.56 C35.808,16.24 36.112,16.064 36.352,15.936 C35.68,15.184 35.248,14.336 34.896,13.6 C34.832,13.44 34.8,13.44 34.576,13.536 L33.856,13.856 C33.68,13.936 33.664,13.968 33.712,14.128 C34,14.896 34.384,15.648 34.88,16.416 C35.024,16.64 35.104,16.752 35.2,16.752 Z M31.536,17.248 C31.616,17.248 31.68,17.152 31.84,16.944 C32.4,16.208 32.688,15.584 33.024,14.784 C33.12,14.56 33.168,14.48 33.264,14.368 C33.36,14.272 33.392,14.208 33.392,14.112 C33.392,14.032 33.328,13.984 33.184,13.92 C32.88,13.776 32.432,13.6 32,13.472 C31.952,13.728 31.904,13.92 31.808,14.16 C31.488,15.008 31.04,15.712 30.352,16.448 C30.56,16.544 30.88,16.736 31.232,17.056 C31.376,17.184 31.456,17.248 31.536,17.248 Z M48.016,16.944 C48.096,16.944 48.192,16.864 48.384,16.752 C51.28,14.96 53.408,12.064 54.272,8.784 C55.072,11.968 56.848,14.576 59.76,16.72 C59.936,16.848 60.048,16.928 60.128,16.928 C60.224,16.928 60.288,16.816 60.416,16.56 C60.704,16.016 61.072,15.616 61.36,15.344 C57.6,13.072 55.632,9.776 55.136,5.456 C55.04,4.688 55.008,4.256 55.04,3.68 C55.04,3.52 54.976,3.488 54.832,3.488 C54.742,3.488 54.427,3.516125 53.4387578,3.51964062 L51.184,3.52 C50.032,3.52 49.68,3.488 49.584,3.488 C49.408,3.488 49.392,3.504 49.392,3.664 L49.392,5.008 C49.392,5.168 49.408,5.184 49.584,5.184 C49.68,5.184 50.032,5.152 51.184,5.152 L53.168,5.152 C52.96,9.728 50.704,13.552 46.736,15.504 C47.056,15.744 47.424,16.128 47.68,16.56 C47.84,16.816 47.904,16.944 48.016,16.944 Z M68.528,16.992 C68.672,16.992 68.88,16.864 69.152,16.688 C71.248,15.312 72,13.376 72,11.52 C72,10.992 71.92,10.368 71.76,9.936 C71.744,8.96 71.744,7.936 71.744,6.96 C73.408,6.944 74.96,6.944 76.624,6.992 C76.816,7.008 76.896,6.96 76.896,6.784 C76.912,6.384 76.912,5.968 76.896,5.568 C76.88,5.36 76.848,5.328 76.656,5.328 C75.12,5.328 73.472,5.344 71.744,5.408 C71.76,4.8 71.76,4.592 71.776,4.384 C71.808,4.176 71.856,4.016 71.904,3.92 C72,3.76 72.048,3.68 72.048,3.552 C72.048,3.408 71.872,3.296 71.6,3.248 C71.216,3.168 70.448,3.072 69.728,3.024 C69.856,3.504 69.888,3.728 69.92,4.192 C69.936,4.624 69.936,5.024 69.952,5.52 C68.032,5.632 65.968,5.76 64.992,5.84 C64.144,5.904 63.632,5.968 63.04,5.904 C63.168,6.56 63.312,7.2 63.44,7.52 C63.488,7.68 63.552,7.744 63.712,7.744 C63.856,7.744 64.112,7.6 64.464,7.552 C65.728,7.376 67.984,7.184 70,7.072 C70,7.6 70.016,8.144 70.016,8.704 C69.76,8.48 69.28,8.384 68.8,8.384 C67.504,8.384 66.384,9.296 66.384,10.784 C66.384,12.32 67.344,13.232 68.608,13.232 C69.136,13.232 69.792,13.056 70.112,12.592 C69.824,13.936 68.704,15.28 66.832,16.112 C67.248,16.24 67.68,16.448 68.048,16.752 C68.208,16.88 68.384,16.992 68.528,16.992 Z M68.896,11.76 C68.32,11.76 67.872,11.376 67.872,10.672 C67.872,9.968 68.432,9.632 68.928,9.632 C69.568,9.632 69.984,10 69.984,10.656 C69.984,11.392 69.488,11.76 68.896,11.76 Z M85.936,16.8 C89.36,16.8 91.52,15.088 91.52,12.416 C91.52,10.112 89.888,8.576 87.552,8.576 C86.656,8.576 85.904,8.784 85.008,9.296 L84.992,9.248 C86.208,8.08 87.28,6.96 88.448,5.824 C88.752,5.552 88.88,5.44 89.152,5.312 C89.328,5.232 89.424,5.088 89.424,4.928 C89.424,4.8 89.376,4.688 89.248,4.544 C88.976,4.208 88.656,3.888 88.176,3.52 C88.064,3.44 87.968,3.392 87.808,3.392 C87.728,3.392 87.584,3.472 87.504,3.52 C87.344,3.6 87.024,3.68 86.624,3.76 C85.376,4 83.968,4.208 82.992,4.304 C82.512,4.336 81.984,4.336 81.504,4.272 C81.728,5.184 81.872,5.632 82.064,6 C82.144,6.192 82.256,6.272 82.416,6.272 C82.496,6.272 82.656,6.224 82.736,6.192 C82.992,6.096 83.2,6.048 83.408,6 C84.4,5.792 85.536,5.568 86.496,5.392 C85.76,6.304 85.008,7.104 84.016,8.128 C82.576,9.632 81.472,10.656 80.224,11.664 C80.096,11.792 80.048,11.904 80.144,12.032 C80.4,12.368 80.752,12.784 81.088,13.072 C81.184,13.168 81.264,13.216 81.328,13.216 C81.408,13.216 81.488,13.152 81.6,13.04 C82.08,12.56 82.528,12.096 82.992,11.68 C84.288,10.576 85.76,9.984 87.088,9.984 C88.576,9.984 89.6,10.944 89.6,12.4 C89.6,13.616 89.088,14.32 87.968,14.832 C87.568,13.296 86.464,12.496 84.96,12.496 C83.712,12.496 82.704,13.376 82.704,14.448 C82.704,15.936 83.92,16.8 85.936,16.8 Z M85.648,15.296 C84.688,15.296 84.256,14.96 84.256,14.464 C84.256,14.128 84.56,13.856 85.024,13.856 C85.696,13.856 86.176,14.352 86.384,15.232 C86.144,15.28 85.936,15.296 85.648,15.296 Z" id="購入する"></path>
                </g>
            </g>
        </g>
    </g>
</svg>