<?xml version="1.0" encoding="UTF-8"?>
<svg width="49px" height="60px" viewBox="0 0 49 60" version="1.1" xmlns="http://www.w3.org/2000/svg" xmlns:xlink="http://www.w3.org/1999/xlink">
    <!-- Generator: Sketch 61.2 (89653) - https://sketch.com -->
    <title>brand__inverted</title>
    <desc>Created with Sketch.</desc>
    <g id="Page-1" stroke="none" stroke-width="1" fill="none" fill-rule="evenodd">
        <g id="iPhone-8" transform="translate(-111.000000, -112.000000)" fill="#FFFFFF">
            <path d="M142.429762,146.285364 C147.009121,146.285854 151.313366,144.502759 154.550989,141.264645 C157.791065,138.027021 159.574161,133.722777 159.57269,129.142927 C159.57318,124.564059 157.789594,120.258833 154.552461,117.02072 C151.313856,113.782606 147.009121,112 142.429272,112 C137.849913,111.99951 133.545178,113.782606 130.308045,117.02072 C129.226222,118.101562 128.308192,119.301572 127.563764,120.590835 C126.078341,123.163475 125.286345,126.092146 125.285854,129.142437 C125.286835,138.594905 132.977294,146.284874 142.429762,146.285364 L142.429762,146.285364 Z M116.715617,172 L111.00049,172 L111,114.856582 L116.715126,114.856582 L116.715617,172 Z" id="brand__inverted"></path>
        </g>
    </g>
</svg>