<?xml version="1.0" encoding="UTF-8"?>
<svg width="49px" height="60px" viewBox="0 0 49 60" version="1.1" xmlns="http://www.w3.org/2000/svg" xmlns:xlink="http://www.w3.org/1999/xlink">
    <!-- Generator: Sketch 61.2 (89653) - https://sketch.com -->
    <title>brand</title>
    <desc>Created with Sketch.</desc>
    <g id="Page-1" stroke="none" stroke-width="1" fill="none" fill-rule="evenodd">
        <g id="iPhone-8" transform="translate(-111.000000, -236.000000)" fill="#00479D">
            <path d="M142.429762,270.285364 C147.009121,270.285854 151.313366,268.502759 154.550989,265.264645 C157.791065,262.027021 159.574161,257.722777 159.57269,253.142927 C159.57318,248.564059 157.789594,244.258833 154.552461,241.02072 C151.313856,237.782606 147.009121,236 142.429272,236 C137.849913,235.99951 133.545178,237.782606 130.308045,241.02072 C129.226222,242.101562 128.308192,243.301572 127.563764,244.590835 C126.078341,247.163475 125.286345,250.092146 125.285854,253.142437 C125.286835,262.594905 132.977294,270.284874 142.429762,270.285364 L142.429762,270.285364 Z M116.715617,296 L111.00049,296 L111,238.856582 L116.715126,238.856582 L116.715617,296 Z" id="brand"></path>
        </g>
    </g>
</svg>